The Exorcist (1973) Extended Directors Cut Blu ray rip  720p

DVDFAB 3D converted 3DTV SBS active shutter

 
http://www.imdb.com/title/tt0070047/




 Video
ID                             : 1
Format                         : AVC
Format/Info                    : Advanced Video Codec
Format profile                 : High@L4.1
Format settings, CABAC         : Yes
Format settings, ReFrames      : 2 frames
Format settings, GOP           : M=3, N=15
Codec ID                       : V_MPEG4/ISO/AVC
Duration                       : 2h 12mn
Bit rate mode                  : Variable
Bit rate                       : 11.7 Mbps
Maximum bit rate               : 18.0 Mbps
Width                          : 1280 pixels
Height                         : 720 pixels
Display aspect ratio           : 16:9
Frame rate                     : 23.976 fps
Color space                    : YUV
Chroma subsampling             : 4:2:0
Bit depth                      : 8 bits
Scan type                      : Progressive
Bits/(Pixel*Frame)             : 0.530
Stream size                    : 10.8 GiB (94%)
Default                        : Yes
Forced                         : No

Audio
ID                             : 2
Format                         : AC-3
Format/Info                    : Audio Coding 3
Mode extension                 : CM (complete main)
Codec ID                       : A_AC3
Duration                       : 2h 12mn
Bit rate mode                  : Constant
Bit rate                       : 512 Kbps
Channel(s)                     : 6 channels
Channel positions              : Front: L C R, Side: L R, LFE
Sampling rate                  : 48.0 KHz
Bit depth                      : 16 bits
Compression mode               : Lossy
Stream size                    : 485 MiB (4%)
Default                        : Yes
Forced                         : No